<?xml version="1.0" encoding="UTF-8" standalone="no"?>
<!DOCTYPE svg PUBLIC "-//W3C//DTD SVG 1.1//EN"
 "http://www.w3.org/Graphics/SVG/1.1/DTD/svg11.dtd">
<!-- Generated by graphviz version 2.38.0 (20140413.2041)
 -->
<!-- Title: include/mo.cpp Pages: 1 -->
<svg width="465pt" height="140pt"
 viewBox="0.00 0.00 465.00 140.00" xmlns="http://www.w3.org/2000/svg" xmlns:xlink="http://www.w3.org/1999/xlink">
<g id="graph0" class="graph" transform="scale(1 1) rotate(0) translate(4 136)">
<title>include/mo.cpp</title>
<!-- Node0 -->
<g id="node1" class="node"><title>Node0</title>
<polygon fill="#bfbfbf" stroke="black" points="272,-112.5 272,-131.5 355,-131.5 355,-112.5 272,-112.5"/>
<text text-anchor="middle" x="313.5" y="-119.5" font-family="Helvetica,sans-Serif" font-size="10.00">include/mo.cpp</text>
</g>
<!-- Node1 -->
<g id="node2" class="node"><title>Node1</title>
<g id="a_node2"><a xlink:href="mo_file_reader_8h.html" target="_top" xlink:title="../include/moFileReader.h">
<polygon fill="none" stroke="black" points="140.5,-56.5 140.5,-75.5 268.5,-75.5 268.5,-56.5 140.5,-56.5"/>
<text text-anchor="middle" x="204.5" y="-63.5" font-family="Helvetica,sans-Serif" font-size="10.00">../include/moFileReader.h</text>
</a>
</g>
</g>
<!-- Node0&#45;&gt;Node1 -->
<g id="edge1" class="edge"><title>Node0&#45;&gt;Node1</title>
<path fill="none" stroke="midnightblue" d="M295.987,-112.324C278.428,-103.625 251.169,-90.1202 230.969,-80.113"/>
<polygon fill="midnightblue" stroke="midnightblue" points="232.484,-76.9575 221.969,-75.6545 229.376,-83.23 232.484,-76.9575"/>
</g>
<!-- Node9 -->
<g id="node10" class="node"><title>Node9</title>
<polygon fill="none" stroke="#bfbfbf" points="286.5,-56.5 286.5,-75.5 340.5,-75.5 340.5,-56.5 286.5,-56.5"/>
<text text-anchor="middle" x="313.5" y="-63.5" font-family="Helvetica,sans-Serif" font-size="10.00">iostream</text>
</g>
<!-- Node0&#45;&gt;Node9 -->
<g id="edge9" class="edge"><title>Node0&#45;&gt;Node9</title>
<path fill="none" stroke="midnightblue" d="M313.5,-112.083C313.5,-105.006 313.5,-94.8611 313.5,-85.9865"/>
<polygon fill="midnightblue" stroke="midnightblue" points="317,-85.751 313.5,-75.7511 310,-85.7511 317,-85.751"/>
</g>
<!-- Node10 -->
<g id="node11" class="node"><title>Node10</title>
<polygon fill="none" stroke="#bfbfbf" points="359,-56.5 359,-75.5 404,-75.5 404,-56.5 359,-56.5"/>
<text text-anchor="middle" x="381.5" y="-63.5" font-family="Helvetica,sans-Serif" font-size="10.00">cstdlib</text>
</g>
<!-- Node0&#45;&gt;Node10 -->
<g id="edge10" class="edge"><title>Node0&#45;&gt;Node10</title>
<path fill="none" stroke="midnightblue" d="M324.425,-112.324C334.675,-104.185 350.221,-91.8395 362.501,-82.0874"/>
<polygon fill="midnightblue" stroke="midnightblue" points="364.721,-84.7937 370.376,-75.8339 360.368,-79.3119 364.721,-84.7937"/>
</g>
<!-- Node2 -->
<g id="node3" class="node"><title>Node2</title>
<polygon fill="none" stroke="#bfbfbf" points="0,-0.5 0,-19.5 43,-19.5 43,-0.5 0,-0.5"/>
<text text-anchor="middle" x="21.5" y="-7.5" font-family="Helvetica,sans-Serif" font-size="10.00">deque</text>
</g>
<!-- Node1&#45;&gt;Node2 -->
<g id="edge2" class="edge"><title>Node1&#45;&gt;Node2</title>
<path fill="none" stroke="midnightblue" d="M175.155,-56.4202C146.271,-47.9639 100.654,-34.5791 52.7358,-20.3573"/>
<polygon fill="midnightblue" stroke="midnightblue" points="53.7085,-16.9951 43.1259,-17.503 51.7154,-23.7054 53.7085,-16.9951"/>
</g>
<!-- Node3 -->
<g id="node4" class="node"><title>Node3</title>
<polygon fill="none" stroke="#bfbfbf" points="61,-0.5 61,-19.5 96,-19.5 96,-0.5 61,-0.5"/>
<text text-anchor="middle" x="78.5" y="-7.5" font-family="Helvetica,sans-Serif" font-size="10.00">map</text>
</g>
<!-- Node1&#45;&gt;Node3 -->
<g id="edge3" class="edge"><title>Node1&#45;&gt;Node3</title>
<path fill="none" stroke="midnightblue" d="M184.535,-56.4435C163.284,-47.3359 129.518,-32.865 105.812,-22.7053"/>
<polygon fill="midnightblue" stroke="midnightblue" points="106.905,-19.3656 96.3344,-18.6433 104.147,-25.7996 106.905,-19.3656"/>
</g>
<!-- Node4 -->
<g id="node5" class="node"><title>Node4</title>
<polygon fill="none" stroke="#bfbfbf" points="114,-0.5 114,-19.5 163,-19.5 163,-0.5 114,-0.5"/>
<text text-anchor="middle" x="138.5" y="-7.5" font-family="Helvetica,sans-Serif" font-size="10.00">fstream</text>
</g>
<!-- Node1&#45;&gt;Node4 -->
<g id="edge4" class="edge"><title>Node1&#45;&gt;Node4</title>
<path fill="none" stroke="midnightblue" d="M193.896,-56.324C184.044,-48.2631 169.149,-36.0765 157.285,-26.3695"/>
<polygon fill="midnightblue" stroke="midnightblue" points="159.253,-23.4575 149.297,-19.8339 154.82,-28.8752 159.253,-23.4575"/>
</g>
<!-- Node5 -->
<g id="node6" class="node"><title>Node5</title>
<polygon fill="none" stroke="#bfbfbf" points="181.5,-0.5 181.5,-19.5 227.5,-19.5 227.5,-0.5 181.5,-0.5"/>
<text text-anchor="middle" x="204.5" y="-7.5" font-family="Helvetica,sans-Serif" font-size="10.00">cstring</text>
</g>
<!-- Node1&#45;&gt;Node5 -->
<g id="edge5" class="edge"><title>Node1&#45;&gt;Node5</title>
<path fill="none" stroke="midnightblue" d="M204.5,-56.083C204.5,-49.0059 204.5,-38.8611 204.5,-29.9865"/>
<polygon fill="midnightblue" stroke="midnightblue" points="208,-29.751 204.5,-19.7511 201,-29.7511 208,-29.751"/>
</g>
<!-- Node6 -->
<g id="node7" class="node"><title>Node6</title>
<polygon fill="none" stroke="#bfbfbf" points="246,-0.5 246,-19.5 287,-19.5 287,-0.5 246,-0.5"/>
<text text-anchor="middle" x="266.5" y="-7.5" font-family="Helvetica,sans-Serif" font-size="10.00">string</text>
</g>
<!-- Node1&#45;&gt;Node6 -->
<g id="edge6" class="edge"><title>Node1&#45;&gt;Node6</title>
<path fill="none" stroke="midnightblue" d="M214.461,-56.324C223.627,-48.3414 237.437,-36.3128 248.528,-26.6529"/>
<polygon fill="midnightblue" stroke="midnightblue" points="251.115,-29.041 256.357,-19.8339 246.518,-23.7624 251.115,-29.041"/>
</g>
<!-- Node7 -->
<g id="node8" class="node"><title>Node7</title>
<polygon fill="none" stroke="#bfbfbf" points="305.5,-0.5 305.5,-19.5 357.5,-19.5 357.5,-0.5 305.5,-0.5"/>
<text text-anchor="middle" x="331.5" y="-7.5" font-family="Helvetica,sans-Serif" font-size="10.00">sstream</text>
</g>
<!-- Node1&#45;&gt;Node7 -->
<g id="edge7" class="edge"><title>Node1&#45;&gt;Node7</title>
<path fill="none" stroke="midnightblue" d="M224.624,-56.4435C245.524,-47.5566 278.435,-33.5632 302.216,-23.4514"/>
<polygon fill="midnightblue" stroke="midnightblue" points="303.638,-26.6504 311.471,-19.5164 300.898,-20.2085 303.638,-26.6504"/>
</g>
<!-- Node8 -->
<g id="node9" class="node"><title>Node8</title>
<g id="a_node9"><a xlink:href="mo_file_config_8h.html" target="_top" xlink:title="moFileConfig.h">
<polygon fill="none" stroke="black" points="376,-0.5 376,-19.5 457,-19.5 457,-0.5 376,-0.5"/>
<text text-anchor="middle" x="416.5" y="-7.5" font-family="Helvetica,sans-Serif" font-size="10.00">moFileConfig.h</text>
</a>
</g>
</g>
<!-- Node1&#45;&gt;Node8 -->
<g id="edge8" class="edge"><title>Node1&#45;&gt;Node8</title>
<path fill="none" stroke="midnightblue" d="M238.092,-56.4435C274.687,-47.1221 333.338,-32.1828 373.326,-21.9972"/>
<polygon fill="midnightblue" stroke="midnightblue" points="374.239,-25.3766 383.065,-19.5164 372.511,-18.5932 374.239,-25.3766"/>
</g>
</g>
</svg>
