<?xml version="1.0" encoding="UTF-8" standalone="no"?>
<!DOCTYPE svg PUBLIC "-//W3C//DTD SVG 1.1//EN"
 "http://www.w3.org/Graphics/SVG/1.1/DTD/svg11.dtd">
<!-- Generated by graphviz version 2.38.0 (20140413.2041)
 -->
<!-- Title: include/moFileConfig.h Pages: 1 -->
<svg width="238pt" height="140pt"
 viewBox="0.00 0.00 238.00 140.00" xmlns="http://www.w3.org/2000/svg" xmlns:xlink="http://www.w3.org/1999/xlink">
<g id="graph0" class="graph" transform="scale(1 1) rotate(0) translate(4 136)">
<title>include/moFileConfig.h</title>
<!-- Node1 -->
<g id="node1" class="node"><title>Node1</title>
<polygon fill="#bfbfbf" stroke="black" points="46,-112.5 46,-131.5 161,-131.5 161,-112.5 46,-112.5"/>
<text text-anchor="middle" x="103.5" y="-119.5" font-family="Helvetica,sans-Serif" font-size="10.00">include/moFileConfig.h</text>
</g>
<!-- Node2 -->
<g id="node2" class="node"><title>Node2</title>
<g id="a_node2"><a xlink:href="mo_file_reader_8h.html" target="_top" xlink:title="include/moFileReader.h">
<polygon fill="none" stroke="black" points="44,-56.5 44,-75.5 163,-75.5 163,-56.5 44,-56.5"/>
<text text-anchor="middle" x="103.5" y="-63.5" font-family="Helvetica,sans-Serif" font-size="10.00">include/moFileReader.h</text>
</a>
</g>
</g>
<!-- Node1&#45;&gt;Node2 -->
<g id="edge1" class="edge"><title>Node1&#45;&gt;Node2</title>
<path fill="none" stroke="midnightblue" d="M103.5,-101.805C103.5,-92.9102 103.5,-82.7798 103.5,-75.7511"/>
<polygon fill="midnightblue" stroke="midnightblue" points="100,-102.083 103.5,-112.083 107,-102.083 100,-102.083"/>
</g>
<!-- Node3 -->
<g id="node3" class="node"><title>Node3</title>
<g id="a_node3"><a xlink:href="mo_8cpp.html" target="_top" xlink:title="include/mo.cpp">
<polygon fill="none" stroke="black" points="0,-0.5 0,-19.5 83,-19.5 83,-0.5 0,-0.5"/>
<text text-anchor="middle" x="41.5" y="-7.5" font-family="Helvetica,sans-Serif" font-size="10.00">include/mo.cpp</text>
</a>
</g>
</g>
<!-- Node2&#45;&gt;Node3 -->
<g id="edge2" class="edge"><title>Node2&#45;&gt;Node3</title>
<path fill="none" stroke="midnightblue" d="M85.7464,-49.5372C74.6915,-39.9087 60.8685,-27.8694 51.6426,-19.8339"/>
<polygon fill="midnightblue" stroke="midnightblue" points="83.699,-52.3954 93.5386,-56.324 88.2965,-47.1168 83.699,-52.3954"/>
</g>
<!-- Node4 -->
<g id="node4" class="node"><title>Node4</title>
<g id="a_node4"><a xlink:href="mo_file_reader_8cpp.html" target="_top" xlink:title="include/moFileReader.cpp">
<polygon fill="none" stroke="black" points="101,-0.5 101,-19.5 230,-19.5 230,-0.5 101,-0.5"/>
<text text-anchor="middle" x="165.5" y="-7.5" font-family="Helvetica,sans-Serif" font-size="10.00">include/moFileReader.cpp</text>
</a>
</g>
</g>
<!-- Node2&#45;&gt;Node4 -->
<g id="edge3" class="edge"><title>Node2&#45;&gt;Node4</title>
<path fill="none" stroke="midnightblue" d="M121.254,-49.5372C132.308,-39.9087 146.131,-27.8694 155.357,-19.8339"/>
<polygon fill="midnightblue" stroke="midnightblue" points="118.703,-47.1168 113.461,-56.324 123.301,-52.3954 118.703,-47.1168"/>
</g>
</g>
</svg>
