<?xml version="1.0" encoding="UTF-8" standalone="no"?>
<!DOCTYPE svg PUBLIC "-//W3C//DTD SVG 1.1//EN"
 "http://www.w3.org/Graphics/SVG/1.1/DTD/svg11.dtd">
<!-- Generated by graphviz version 2.38.0 (20140413.2041)
 -->
<!-- Title: C:/Github/MofileReader/include/moFileReader.h Pages: 1 -->
<svg width="465pt" height="95pt"
 viewBox="0.00 0.00 465.00 95.00" xmlns="http://www.w3.org/2000/svg" xmlns:xlink="http://www.w3.org/1999/xlink">
<g id="graph0" class="graph" transform="scale(1 1) rotate(0) translate(4 91)">
<title>C:/Github/MofileReader/include/moFileReader.h</title>
<!-- Node0 -->
<g id="node1" class="node"><title>Node0</title>
<polygon fill="#bfbfbf" stroke="black" points="143.5,-56.5 143.5,-86.5 265.5,-86.5 265.5,-56.5 143.5,-56.5"/>
<text text-anchor="start" x="151.5" y="-74.5" font-family="Helvetica,sans-Serif" font-size="10.00">C:/Github/MofileReader</text>
<text text-anchor="middle" x="204.5" y="-63.5" font-family="Helvetica,sans-Serif" font-size="10.00">/include/moFileReader.h</text>
</g>
<!-- Node1 -->
<g id="node2" class="node"><title>Node1</title>
<polygon fill="none" stroke="#bfbfbf" points="0,-0.5 0,-19.5 43,-19.5 43,-0.5 0,-0.5"/>
<text text-anchor="middle" x="21.5" y="-7.5" font-family="Helvetica,sans-Serif" font-size="10.00">deque</text>
</g>
<!-- Node0&#45;&gt;Node1 -->
<g id="edge1" class="edge"><title>Node0&#45;&gt;Node1</title>
<path fill="none" stroke="midnightblue" d="M161.132,-56.3993C128.04,-45.6401 83.2072,-31.0633 53.3663,-21.3609"/>
<polygon fill="midnightblue" stroke="midnightblue" points="54.0725,-17.9102 43.4803,-18.1466 51.908,-24.5672 54.0725,-17.9102"/>
</g>
<!-- Node2 -->
<g id="node3" class="node"><title>Node2</title>
<polygon fill="none" stroke="#bfbfbf" points="61,-0.5 61,-19.5 96,-19.5 96,-0.5 61,-0.5"/>
<text text-anchor="middle" x="78.5" y="-7.5" font-family="Helvetica,sans-Serif" font-size="10.00">map</text>
</g>
<!-- Node0&#45;&gt;Node2 -->
<g id="edge2" class="edge"><title>Node0&#45;&gt;Node2</title>
<path fill="none" stroke="midnightblue" d="M174.64,-56.3993C153.626,-46.4764 125.737,-33.3063 105.41,-23.7076"/>
<polygon fill="midnightblue" stroke="midnightblue" points="106.64,-20.4176 96.1026,-19.3124 103.651,-26.7473 106.64,-20.4176"/>
</g>
<!-- Node3 -->
<g id="node4" class="node"><title>Node3</title>
<polygon fill="none" stroke="#bfbfbf" points="114,-0.5 114,-19.5 163,-19.5 163,-0.5 114,-0.5"/>
<text text-anchor="middle" x="138.5" y="-7.5" font-family="Helvetica,sans-Serif" font-size="10.00">fstream</text>
</g>
<!-- Node0&#45;&gt;Node3 -->
<g id="edge3" class="edge"><title>Node0&#45;&gt;Node3</title>
<path fill="none" stroke="midnightblue" d="M188.859,-56.3993C178.873,-47.3967 165.922,-35.7214 155.655,-26.4652"/>
<polygon fill="midnightblue" stroke="midnightblue" points="157.875,-23.7541 148.104,-19.6578 153.187,-28.9533 157.875,-23.7541"/>
</g>
<!-- Node4 -->
<g id="node5" class="node"><title>Node4</title>
<polygon fill="none" stroke="#bfbfbf" points="181.5,-0.5 181.5,-19.5 227.5,-19.5 227.5,-0.5 181.5,-0.5"/>
<text text-anchor="middle" x="204.5" y="-7.5" font-family="Helvetica,sans-Serif" font-size="10.00">cstring</text>
</g>
<!-- Node0&#45;&gt;Node4 -->
<g id="edge4" class="edge"><title>Node0&#45;&gt;Node4</title>
<path fill="none" stroke="midnightblue" d="M204.5,-56.3993C204.5,-48.4664 204.5,-38.458 204.5,-29.8583"/>
<polygon fill="midnightblue" stroke="midnightblue" points="208,-29.6577 204.5,-19.6578 201,-29.6578 208,-29.6577"/>
</g>
<!-- Node5 -->
<g id="node6" class="node"><title>Node5</title>
<polygon fill="none" stroke="#bfbfbf" points="246,-0.5 246,-19.5 287,-19.5 287,-0.5 246,-0.5"/>
<text text-anchor="middle" x="266.5" y="-7.5" font-family="Helvetica,sans-Serif" font-size="10.00">string</text>
</g>
<!-- Node0&#45;&gt;Node5 -->
<g id="edge5" class="edge"><title>Node0&#45;&gt;Node5</title>
<path fill="none" stroke="midnightblue" d="M219.193,-56.3993C228.481,-47.4859 240.499,-35.9523 250.098,-26.7408"/>
<polygon fill="midnightblue" stroke="midnightblue" points="252.687,-29.1072 257.478,-19.6578 247.84,-24.0566 252.687,-29.1072"/>
</g>
<!-- Node6 -->
<g id="node7" class="node"><title>Node6</title>
<polygon fill="none" stroke="#bfbfbf" points="305.5,-0.5 305.5,-19.5 357.5,-19.5 357.5,-0.5 305.5,-0.5"/>
<text text-anchor="middle" x="331.5" y="-7.5" font-family="Helvetica,sans-Serif" font-size="10.00">sstream</text>
</g>
<!-- Node0&#45;&gt;Node6 -->
<g id="edge6" class="edge"><title>Node0&#45;&gt;Node6</title>
<path fill="none" stroke="midnightblue" d="M234.597,-56.3993C255.62,-46.55 283.472,-33.5014 303.919,-23.9217"/>
<polygon fill="midnightblue" stroke="midnightblue" points="305.45,-27.0698 313.02,-19.6578 302.48,-20.7309 305.45,-27.0698"/>
</g>
<!-- Node7 -->
<g id="node8" class="node"><title>Node7</title>
<g id="a_node8"><a xlink:href="mo_file_config_8h.html" target="_top" xlink:title="moFileConfig.h">
<polygon fill="none" stroke="black" points="376,-0.5 376,-19.5 457,-19.5 457,-0.5 376,-0.5"/>
<text text-anchor="middle" x="416.5" y="-7.5" font-family="Helvetica,sans-Serif" font-size="10.00">moFileConfig.h</text>
</a>
</g>
</g>
<!-- Node0&#45;&gt;Node7 -->
<g id="edge7" class="edge"><title>Node0&#45;&gt;Node7</title>
<path fill="none" stroke="midnightblue" d="M254.473,-56.4747C291.686,-46.0304 341.828,-31.9576 376.427,-22.2469"/>
<polygon fill="midnightblue" stroke="midnightblue" points="377.509,-25.5784 386.192,-19.5064 375.618,-18.8388 377.509,-25.5784"/>
</g>
</g>
</svg>
