<?xml version="1.0" encoding="UTF-8" standalone="no"?>
<!DOCTYPE svg PUBLIC "-//W3C//DTD SVG 1.1//EN"
 "http://www.w3.org/Graphics/SVG/1.1/DTD/svg11.dtd">
<!-- Generated by graphviz version 2.38.0 (20140413.2041)
 -->
<!-- Title: include/moFileReader.h Pages: 1 -->
<svg width="465pt" height="84pt"
 viewBox="0.00 0.00 465.00 84.00" xmlns="http://www.w3.org/2000/svg" xmlns:xlink="http://www.w3.org/1999/xlink">
<g id="graph0" class="graph" transform="scale(1 1) rotate(0) translate(4 80)">
<title>include/moFileReader.h</title>
<!-- Node0 -->
<g id="node1" class="node"><title>Node0</title>
<polygon fill="#bfbfbf" stroke="black" points="145,-56.5 145,-75.5 264,-75.5 264,-56.5 145,-56.5"/>
<text text-anchor="middle" x="204.5" y="-63.5" font-family="Helvetica,sans-Serif" font-size="10.00">include/moFileReader.h</text>
</g>
<!-- Node1 -->
<g id="node2" class="node"><title>Node1</title>
<polygon fill="none" stroke="#bfbfbf" points="0,-0.5 0,-19.5 43,-19.5 43,-0.5 0,-0.5"/>
<text text-anchor="middle" x="21.5" y="-7.5" font-family="Helvetica,sans-Serif" font-size="10.00">deque</text>
</g>
<!-- Node0&#45;&gt;Node1 -->
<g id="edge1" class="edge"><title>Node0&#45;&gt;Node1</title>
<path fill="none" stroke="midnightblue" d="M175.155,-56.4202C146.271,-47.9639 100.654,-34.5791 52.7358,-20.3573"/>
<polygon fill="midnightblue" stroke="midnightblue" points="53.7085,-16.9951 43.1259,-17.503 51.7154,-23.7054 53.7085,-16.9951"/>
</g>
<!-- Node2 -->
<g id="node3" class="node"><title>Node2</title>
<polygon fill="none" stroke="#bfbfbf" points="61,-0.5 61,-19.5 96,-19.5 96,-0.5 61,-0.5"/>
<text text-anchor="middle" x="78.5" y="-7.5" font-family="Helvetica,sans-Serif" font-size="10.00">map</text>
</g>
<!-- Node0&#45;&gt;Node2 -->
<g id="edge2" class="edge"><title>Node0&#45;&gt;Node2</title>
<path fill="none" stroke="midnightblue" d="M184.535,-56.4435C163.284,-47.3359 129.518,-32.865 105.812,-22.7053"/>
<polygon fill="midnightblue" stroke="midnightblue" points="106.905,-19.3656 96.3344,-18.6433 104.147,-25.7996 106.905,-19.3656"/>
</g>
<!-- Node3 -->
<g id="node4" class="node"><title>Node3</title>
<polygon fill="none" stroke="#bfbfbf" points="114,-0.5 114,-19.5 163,-19.5 163,-0.5 114,-0.5"/>
<text text-anchor="middle" x="138.5" y="-7.5" font-family="Helvetica,sans-Serif" font-size="10.00">fstream</text>
</g>
<!-- Node0&#45;&gt;Node3 -->
<g id="edge3" class="edge"><title>Node0&#45;&gt;Node3</title>
<path fill="none" stroke="midnightblue" d="M193.896,-56.324C184.044,-48.2631 169.149,-36.0765 157.285,-26.3695"/>
<polygon fill="midnightblue" stroke="midnightblue" points="159.253,-23.4575 149.297,-19.8339 154.82,-28.8752 159.253,-23.4575"/>
</g>
<!-- Node4 -->
<g id="node5" class="node"><title>Node4</title>
<polygon fill="none" stroke="#bfbfbf" points="181.5,-0.5 181.5,-19.5 227.5,-19.5 227.5,-0.5 181.5,-0.5"/>
<text text-anchor="middle" x="204.5" y="-7.5" font-family="Helvetica,sans-Serif" font-size="10.00">cstring</text>
</g>
<!-- Node0&#45;&gt;Node4 -->
<g id="edge4" class="edge"><title>Node0&#45;&gt;Node4</title>
<path fill="none" stroke="midnightblue" d="M204.5,-56.083C204.5,-49.0059 204.5,-38.8611 204.5,-29.9865"/>
<polygon fill="midnightblue" stroke="midnightblue" points="208,-29.751 204.5,-19.7511 201,-29.7511 208,-29.751"/>
</g>
<!-- Node5 -->
<g id="node6" class="node"><title>Node5</title>
<polygon fill="none" stroke="#bfbfbf" points="246,-0.5 246,-19.5 287,-19.5 287,-0.5 246,-0.5"/>
<text text-anchor="middle" x="266.5" y="-7.5" font-family="Helvetica,sans-Serif" font-size="10.00">string</text>
</g>
<!-- Node0&#45;&gt;Node5 -->
<g id="edge5" class="edge"><title>Node0&#45;&gt;Node5</title>
<path fill="none" stroke="midnightblue" d="M214.461,-56.324C223.627,-48.3414 237.437,-36.3128 248.528,-26.6529"/>
<polygon fill="midnightblue" stroke="midnightblue" points="251.115,-29.041 256.357,-19.8339 246.518,-23.7624 251.115,-29.041"/>
</g>
<!-- Node6 -->
<g id="node7" class="node"><title>Node6</title>
<polygon fill="none" stroke="#bfbfbf" points="305.5,-0.5 305.5,-19.5 357.5,-19.5 357.5,-0.5 305.5,-0.5"/>
<text text-anchor="middle" x="331.5" y="-7.5" font-family="Helvetica,sans-Serif" font-size="10.00">sstream</text>
</g>
<!-- Node0&#45;&gt;Node6 -->
<g id="edge6" class="edge"><title>Node0&#45;&gt;Node6</title>
<path fill="none" stroke="midnightblue" d="M224.624,-56.4435C245.524,-47.5566 278.435,-33.5632 302.216,-23.4514"/>
<polygon fill="midnightblue" stroke="midnightblue" points="303.638,-26.6504 311.471,-19.5164 300.898,-20.2085 303.638,-26.6504"/>
</g>
<!-- Node7 -->
<g id="node8" class="node"><title>Node7</title>
<g id="a_node8"><a xlink:href="mo_file_config_8h.html" target="_top" xlink:title="moFileConfig.h">
<polygon fill="none" stroke="black" points="376,-0.5 376,-19.5 457,-19.5 457,-0.5 376,-0.5"/>
<text text-anchor="middle" x="416.5" y="-7.5" font-family="Helvetica,sans-Serif" font-size="10.00">moFileConfig.h</text>
</a>
</g>
</g>
<!-- Node0&#45;&gt;Node7 -->
<g id="edge7" class="edge"><title>Node0&#45;&gt;Node7</title>
<path fill="none" stroke="midnightblue" d="M238.092,-56.4435C274.687,-47.1221 333.338,-32.1828 373.326,-21.9972"/>
<polygon fill="midnightblue" stroke="midnightblue" points="374.239,-25.3766 383.065,-19.5164 372.511,-18.5932 374.239,-25.3766"/>
</g>
</g>
</svg>
